# xmcd
#
# Track frame offsets:
#	150
#	16310
#	31053
#	49519
#	66261
#	83951
#	99895
#	116925
#	130033
#	143619
#	159581
#	175167
#	189717
#	203538
#	219884
#	233809
#	246652
#
# Disc length: 3462 seconds
#
# Revision: 1
# Processed by: cddbd v1.5.2PL0 Copyright (c) Steve Scherf et al.
# Submitted via: audiograbber 1.83.01
#
DISCID=e10d8411
DTITLE=Various Artist - CDX 11
DYEAR=1991
DGENRE=Country
TTITLE0=The Bama Band - Boys Like Me
TTITLE1=Eddie Rabbitt - Hang Up The Phone
TTITLE2=Marty Brown - High And Dry
TTITLE3=TG Sheppard - It's One AM (Do You Know Where Your Memories Are)
TTITLE4=Ricky van Shelton - Keep It Between The Lines
TTITLE5=Ricky Skaggs - Life's Too Long (To Live Like This)
TTITLE6=Trisha Yearwood - Like We Never Had A Broken Heart
TTITLE7=Pam Tillis - Put Yourself In My Place
TTITLE8=Conway Twitty - She's Got A Man On Her Mind
TTITLE9=Tony Toliver - That How Strong My Weakness Is
TTITLE10=Vern Gosdin - The Garden
TTITLE11=Kelly Willis - The Heart That Love Forgot
TTITLE12=Jamie Robbins - There Ain't Enough Roses
TTITLE13=Linda Davis - Three Way Tie
TTITLE14=Donna Ulisse - Trouble At The Door
TTITLE15=Tammy Wynette - We're Strangers Again [Duet with Randy Travis]
TTITLE16=Skip Ewing - The Yodelin Blues
EXTD=
EXTT0=
EXTT1=
EXTT2=
EXTT3=
EXTT4=
EXTT5=
EXTT6=
EXTT7=
EXTT8=
EXTT9=
EXTT10=
EXTT11=
EXTT12=
EXTT13=
EXTT14=
EXTT15=
EXTT16=
PLAYORDER=
